{
    "asset" : {
        "generator" : "Khronos glTF Blender I/O v1.7.17",
        "version" : "2.0"
    },
    "extensionsUsed" : [
        "KHR_texture_transform",
        "KHR_materials_clearcoat"
    ],
    "extensionsRequired" : [
        "KHR_texture_transform"
    ],
    "scene" : 0,
    "scenes" : [
        {
            "name" : "Scene",
            "nodes" : [
                0
            ]
        }
    ],
    "nodes" : [
        {
            "mesh" : 0,
            "name" : "Newemka",
            "rotation" : [
                0.7071068286895752,
                0,
                0,
                0.7071068286895752
            ],
            "scale" : [
                0.8110342025756836,
                0.8110342025756836,
                0.8110342025756836
            ],
            "translation" : [
                0,
                0.949999988079071,
                -0.7200000286102295
            ]
        }
    ],
    "materials" : [
        {
            "doubleSided" : true,
            "name" : "chrome",
            "pbrMetallicRoughness" : {
                "baseColorTexture" : {
                    "extensions" : {
                        "KHR_texture_transform" : {
                            "offset" : [
                                0,
                                0.8999999985098839
                            ],
                            "scale" : [
                                0.10000000149011612,
                                0.10000000149011612
                            ]
                        }
                    },
                    "index" : 0
                },
                "roughnessFactor" : 0
            }
        },
        {
            "doubleSided" : true,
            "emissiveFactor" : [
                1,
                1,
                1
            ],
            "emissiveTexture" : {
                "extensions" : {
                    "KHR_texture_transform" : {
                        "offset" : [
                            0,
                            -0.24000000953674316
                        ],
                        "scale" : [
                            1,
                            1.4900000095367432
                        ]
                    }
                },
                "index" : 1
            },
            "name" : "Front_letters",
            "pbrMetallicRoughness" : {
                "baseColorFactor" : [
                    0,
                    0,
                    0,
                    1
                ],
                "metallicFactor" : 0,
                "roughnessFactor" : 0
            }
        },
        {
            "doubleSided" : true,
            "extensions" : {
                "KHR_materials_clearcoat" : {
                    "clearcoatFactor" : 0.03636360168457031,
                    "clearcoatRoughnessFactor" : 0.36636364459991455
                }
            },
            "name" : "extude",
            "pbrMetallicRoughness" : {
                "metallicFactor" : 0.5909090638160706,
                "roughnessFactor" : 0.3590908944606781
            }
        }
    ],
    "meshes" : [
        {
            "name" : "Text.002",
            "primitives" : [
                {
                    "attributes" : {
                        "POSITION" : 0,
                        "NORMAL" : 1,
                        "TEXCOORD_0" : 2,
                        "TEXCOORD_1" : 3
                    },
                    "indices" : 4,
                    "material" : 0
                },
                {
                    "attributes" : {
                        "POSITION" : 5,
                        "NORMAL" : 6,
                        "TEXCOORD_0" : 7,
                        "TEXCOORD_1" : 8
                    },
                    "indices" : 9,
                    "material" : 1
                },
                {
                    "attributes" : {
                        "POSITION" : 10,
                        "NORMAL" : 11,
                        "TEXCOORD_0" : 12,
                        "TEXCOORD_1" : 13
                    },
                    "indices" : 14,
                    "material" : 2
                }
            ]
        }
    ],
    "textures" : [
        {
            "sampler" : 0,
            "source" : 0
        },
        {
            "sampler" : 0,
            "source" : 1
        }
    ],
    "images" : [
        {
            "bufferView" : 5,
            "mimeType" : "image/png",
            "name" : "4chromes"
        },
        {
            "bufferView" : 11,
            "mimeType" : "image/png",
            "name" : "front_"
        }
    ],
    "accessors" : [
        {
            "bufferView" : 0,
            "componentType" : 5126,
            "count" : 3939,
            "max" : [
                1.5406256914138794,
                1.2726370096206665,
                0.3654831051826477
            ],
            "min" : [
                -1.6072402000427246,
                -1.0401161909103394,
                -0.32925376296043396
            ],
            "type" : "VEC3"
        },
        {
            "bufferView" : 1,
            "componentType" : 5126,
            "count" : 3939,
            "type" : "VEC3"
        },
        {
            "bufferView" : 2,
            "componentType" : 5126,
            "count" : 3939,
            "type" : "VEC2"
        },
        {
            "bufferView" : 3,
            "componentType" : 5126,
            "count" : 3939,
            "type" : "VEC2"
        },
        {
            "bufferView" : 4,
            "componentType" : 5123,
            "count" : 14118,
            "type" : "SCALAR"
        },
        {
            "bufferView" : 6,
            "componentType" : 5126,
            "count" : 3963,
            "max" : [
                1.5132421255111694,
                1.272637128829956,
                0.3340613543987274
            ],
            "min" : [
                -1.5795447826385498,
                1.2726366519927979,
                -0.29219257831573486
            ],
            "type" : "VEC3"
        },
        {
            "bufferView" : 7,
            "componentType" : 5126,
            "count" : 3963,
            "type" : "VEC3"
        },
        {
            "bufferView" : 8,
            "componentType" : 5126,
            "count" : 3963,
            "type" : "VEC2"
        },
        {
            "bufferView" : 9,
            "componentType" : 5126,
            "count" : 3963,
            "type" : "VEC2"
        },
        {
            "bufferView" : 10,
            "componentType" : 5123,
            "count" : 4278,
            "type" : "SCALAR"
        },
        {
            "bufferView" : 12,
            "componentType" : 5126,
            "count" : 240,
            "max" : [
                1.5406256914138794,
                1.2050620317459106,
                0.3654831051826477
            ],
            "min" : [
                -1.6072402000427246,
                -1.0401161909103394,
                -0.32925376296043396
            ],
            "type" : "VEC3"
        },
        {
            "bufferView" : 13,
            "componentType" : 5126,
            "count" : 240,
            "type" : "VEC3"
        },
        {
            "bufferView" : 14,
            "componentType" : 5126,
            "count" : 240,
            "type" : "VEC2"
        },
        {
            "bufferView" : 15,
            "componentType" : 5126,
            "count" : 240,
            "type" : "VEC2"
        },
        {
            "bufferView" : 16,
            "componentType" : 5123,
            "count" : 714,
            "type" : "SCALAR"
        }
    ],
    "bufferViews" : [
        {
            "buffer" : 0,
            "byteLength" : 47268,
            "byteOffset" : 0
        },
        {
            "buffer" : 0,
            "byteLength" : 47268,
            "byteOffset" : 47268
        },
        {
            "buffer" : 0,
            "byteLength" : 31512,
            "byteOffset" : 94536
        },
        {
            "buffer" : 0,
            "byteLength" : 31512,
            "byteOffset" : 126048
        },
        {
            "buffer" : 0,
            "byteLength" : 28236,
            "byteOffset" : 157560
        },
        {
            "buffer" : 0,
            "byteLength" : 1295596,
            "byteOffset" : 185796
        },
        {
            "buffer" : 0,
            "byteLength" : 47556,
            "byteOffset" : 1481392
        },
        {
            "buffer" : 0,
            "byteLength" : 47556,
            "byteOffset" : 1528948
        },
        {
            "buffer" : 0,
            "byteLength" : 31704,
            "byteOffset" : 1576504
        },
        {
            "buffer" : 0,
            "byteLength" : 31704,
            "byteOffset" : 1608208
        },
        {
            "buffer" : 0,
            "byteLength" : 8556,
            "byteOffset" : 1639912
        },
        {
            "buffer" : 0,
            "byteLength" : 84115,
            "byteOffset" : 1648468
        },
        {
            "buffer" : 0,
            "byteLength" : 2880,
            "byteOffset" : 1732584
        },
        {
            "buffer" : 0,
            "byteLength" : 2880,
            "byteOffset" : 1735464
        },
        {
            "buffer" : 0,
            "byteLength" : 1920,
            "byteOffset" : 1738344
        },
        {
            "buffer" : 0,
            "byteLength" : 1920,
            "byteOffset" : 1740264
        },
        {
            "buffer" : 0,
            "byteLength" : 1428,
            "byteOffset" : 1742184
        }
    ],
    "samplers" : [
        {
            "magFilter" : 9729,
            "minFilter" : 9987
        }
    ],
    "buffers" : [
        {
            "byteLength" : 1743612,
            "uri" : "data:application/octet-stream;base64,"
        }
    ]
}
